<?xml version="1.0" encoding="utf-8"?>
<!-- Generator: Adobe Illustrator 27.5.0, SVG Export Plug-In . SVG Version: 6.00 Build 0)  -->
<svg vwidth="84" height="80" viewBox="0 0 84 80" fill="none" xmlns="http://www.w3.org/2000/svg" xmlns:xlink="http://www.w3.org/1999/xlink" x="0px" y="0px"
	 viewBox="0 0 260.016 273.616" style="enable-background:new 0 0 260.016 273.616;" xml:space="preserve">
<g>
	<g>
		<path style="fill:#FFFFFF;" d="M205.036,80.427c-38.57-26.658-58.729-54.268-61.46-58.15c-1.234-2.042-3.227-3.604-5.653-4.263
			c-1.985-0.541-4.026-0.406-5.852,0.286c-1.946,0.731-3.56,2.07-4.647,3.763c-1.766,2.527-22.255,31.166-61.604,58.362
			c-22.066,15.246-37.386,33.512-44.301,52.819c-6.677,18.641-5.319,38.06,3.823,54.679c10.025,18.227,34.039,30.261,58.413,29.294
			c12.269-0.491,23.586-4.21,33.379-10.741c-9.64,27.257-23.318,44.611-23.504,44.843c-2.293,2.849-2.748,6.762-1.168,10.061
			c1.579,3.297,4.912,5.397,8.568,5.397h68.788c3.657,0,6.989-2.099,8.568-5.397c1.58-3.299,1.126-7.21-1.167-10.059
			c-0.193-0.241-13.898-17.516-23.54-44.869c9.801,6.545,21.134,10.273,33.417,10.766c24.354,0.987,48.391-11.067,58.417-29.294
			c9.141-16.619,10.499-36.038,3.822-54.678C242.421,113.937,227.102,95.671,205.036,80.427z"/>
		<path style="fill:#F1F1F1;" d="M204.051,79.44c-38.57-26.657-58.729-54.269-61.46-58.149c-1.233-2.043-3.226-3.604-5.653-4.264
			c-1.985-0.54-4.026-0.406-5.852,0.286c-1.946,0.732-3.56,2.071-4.646,3.763c-1.766,2.528-22.255,31.168-61.605,58.363
			C42.769,94.686,27.45,112.95,20.534,132.258c-6.677,18.641-5.319,38.061,3.823,54.68c10.025,18.225,34.039,30.26,58.414,29.293
			c12.269-0.491,23.585-4.209,33.378-10.74c-9.64,27.256-23.318,44.61-23.504,44.844c-2.293,2.848-2.748,6.761-1.168,10.059
			c1.579,3.299,4.912,5.398,8.569,5.398h68.788c3.657,0,6.989-2.1,8.568-5.398c1.579-3.298,1.125-7.21-1.167-10.057
			c-0.193-0.242-13.898-17.516-23.54-44.87c9.801,6.545,21.134,10.272,33.417,10.765c24.354,0.987,48.391-11.066,58.416-29.293
			c9.142-16.619,10.5-36.039,3.823-54.679C241.436,112.95,226.116,94.686,204.051,79.44z"/>
		<path style="fill:#E2E2E2;" d="M203.066,78.455c-38.571-26.656-58.73-54.269-61.462-58.149c-1.233-2.043-3.226-3.603-5.653-4.263
			c-1.985-0.541-4.026-0.406-5.852,0.285c-1.946,0.731-3.56,2.07-4.646,3.764c-1.766,2.527-22.255,31.167-61.605,58.362
			C41.783,93.7,26.464,111.965,19.548,131.272c-6.677,18.642-5.319,38.061,3.823,54.68c10.025,18.226,34.039,30.261,58.414,29.294
			c12.269-0.492,23.586-4.211,33.378-10.742c-9.64,27.258-23.318,44.611-23.504,44.845c-2.293,2.848-2.748,6.76-1.168,10.06
			c1.579,3.298,4.911,5.396,8.568,5.396h68.788c3.657,0,6.989-2.098,8.569-5.396c1.579-3.299,1.125-7.211-1.167-10.059
			c-0.193-0.24-13.897-17.516-23.54-44.869c9.801,6.545,21.134,10.273,33.417,10.766c24.354,0.986,48.391-11.067,58.416-29.294
			c9.142-16.619,10.5-36.038,3.823-54.679C240.45,111.965,225.131,93.7,203.066,78.455z"/>
		<path style="fill:#D4D4D4;" d="M202.081,77.47c-38.571-26.656-58.73-54.269-61.462-58.149c-1.233-2.043-3.226-3.603-5.652-4.263
			c-1.985-0.541-4.026-0.407-5.852,0.285c-1.946,0.731-3.56,2.071-4.646,3.763c-1.766,2.528-22.255,31.168-61.605,58.363
			c-22.066,15.246-37.385,33.511-44.3,52.818c-6.677,18.642-5.319,38.061,3.823,54.68c10.025,18.226,34.039,30.26,58.414,29.294
			c12.269-0.492,23.586-4.21,33.378-10.741c-9.64,27.256-23.318,44.61-23.504,44.844c-2.293,2.848-2.748,6.76-1.168,10.059
			c1.579,3.299,4.911,5.398,8.568,5.398h68.788c3.657,0,6.989-2.099,8.568-5.398c1.579-3.298,1.126-7.21-1.167-10.058
			c-0.193-0.24-13.898-17.515-23.54-44.869c9.801,6.545,21.134,10.272,33.418,10.766c24.353,0.987,48.391-11.067,58.415-29.294
			c9.142-16.619,10.5-36.038,3.823-54.679C239.465,110.979,224.145,92.715,202.081,77.47z"/>
		<path style="fill:#C5C5C5;" d="M201.096,76.484c-38.571-26.656-58.73-54.269-61.462-58.149c-1.233-2.043-3.226-3.604-5.652-4.263
			c-1.985-0.541-4.026-0.406-5.852,0.285c-1.946,0.731-3.56,2.071-4.646,3.764c-1.766,2.527-22.255,31.167-61.604,58.362
			c-22.066,15.247-37.386,33.511-44.301,52.819c-6.677,18.641-5.319,38.06,3.823,54.68c10.025,18.225,34.039,30.26,58.413,29.293
			c12.269-0.492,23.586-4.21,33.378-10.741c-9.639,27.257-23.318,44.61-23.504,44.844c-2.294,2.848-2.748,6.761-1.169,10.06
			c1.579,3.298,4.911,5.397,8.568,5.397h68.788c3.657,0,6.989-2.099,8.568-5.397c1.579-3.299,1.125-7.211-1.167-10.059
			c-0.193-0.24-13.897-17.515-23.54-44.869c9.801,6.545,21.134,10.272,33.419,10.766c24.353,0.986,48.391-11.067,58.415-29.293
			c9.143-16.62,10.5-36.039,3.823-54.68C238.479,109.994,223.161,91.73,201.096,76.484z"/>
		<path style="fill:#B7B7B7;" d="M200.11,75.499C161.54,48.843,141.38,21.23,138.649,17.35c-1.233-2.043-3.227-3.603-5.653-4.263
			c-1.985-0.541-4.026-0.406-5.852,0.286c-1.946,0.731-3.56,2.07-4.646,3.763c-1.766,2.528-22.255,31.167-61.604,58.362
			c-22.066,15.246-37.385,33.511-44.301,52.818c-6.677,18.642-5.319,38.061,3.823,54.681c10.025,18.226,34.039,30.26,58.413,29.293
			c12.269-0.491,23.586-4.21,33.379-10.741c-9.64,27.257-23.318,44.611-23.504,44.844c-2.294,2.848-2.748,6.76-1.168,10.06
			c1.579,3.298,4.912,5.398,8.568,5.398h68.788c3.657,0,6.989-2.099,8.568-5.398c1.579-3.298,1.125-7.21-1.167-10.059
			c-0.193-0.24-13.897-17.515-23.54-44.869c9.801,6.545,21.134,10.272,33.418,10.766c24.353,0.987,48.391-11.067,58.415-29.293
			c9.143-16.62,10.501-36.039,3.823-54.679C237.494,109.009,222.176,90.744,200.11,75.499z"/>
		<path style="fill:#A8A8A8;" d="M199.125,74.514c-38.571-26.656-58.731-54.269-61.462-58.149c-1.233-2.043-3.226-3.603-5.653-4.263
			c-1.985-0.541-4.026-0.406-5.852,0.285c-1.946,0.731-3.56,2.071-4.646,3.764c-1.766,2.527-22.255,31.167-61.605,58.362
			c-22.066,15.247-37.385,33.511-44.301,52.818c-6.677,18.642-5.319,38.062,3.823,54.681c10.025,18.225,34.039,30.26,58.414,29.293
			c12.269-0.492,23.585-4.21,33.378-10.741c-9.64,27.257-23.318,44.61-23.504,44.844c-2.293,2.849-2.748,6.761-1.169,10.059
			c1.579,3.299,4.912,5.398,8.569,5.398h68.788c3.657,0,6.989-2.099,8.569-5.398c1.579-3.297,1.125-7.21-1.168-10.058
			c-0.193-0.24-13.898-17.515-23.54-44.869c9.801,6.545,21.134,10.273,33.418,10.766c24.353,0.987,48.391-11.066,58.415-29.293
			c9.143-16.619,10.501-36.039,3.823-54.679C236.509,108.023,221.19,89.76,199.125,74.514z"/>
		<path style="fill:#9A9A9A;" d="M198.139,73.527c-38.57-26.655-58.73-54.269-61.461-58.148c-1.233-2.043-3.226-3.603-5.653-4.264
			c-1.985-0.54-4.026-0.406-5.852,0.286c-1.946,0.73-3.56,2.07-4.646,3.763c-1.766,2.529-22.255,31.168-61.605,58.363
			c-22.066,15.247-37.385,33.51-44.301,52.818c-6.677,18.642-5.319,38.061,3.823,54.681c10.025,18.225,34.039,30.259,58.414,29.292
			c12.269-0.491,23.586-4.21,33.378-10.741c-9.64,27.257-23.318,44.611-23.504,44.845c-2.293,2.849-2.748,6.76-1.168,10.059
			c1.579,3.299,4.911,5.398,8.568,5.398h68.788c3.657,0,6.989-2.099,8.569-5.398c1.579-3.297,1.125-7.21-1.168-10.059
			c-0.193-0.239-13.897-17.514-23.54-44.869c9.801,6.547,21.134,10.274,33.418,10.766c24.352,0.987,48.391-11.066,58.416-29.292
			c9.141-16.62,10.499-36.039,3.823-54.679C235.523,107.037,220.205,88.774,198.139,73.527z"/>
		<path style="fill:#8B8B8B;" d="M197.153,72.543c-38.57-26.657-58.73-54.27-61.461-58.15c-1.233-2.041-3.226-3.601-5.652-4.263
			c-1.985-0.54-4.026-0.406-5.852,0.286c-1.946,0.73-3.56,2.07-4.646,3.763c-1.766,2.529-22.255,31.168-61.605,58.362
			c-22.066,15.248-37.385,33.512-44.3,52.819c-6.677,18.641-5.319,38.061,3.823,54.681c10.025,18.225,34.039,30.259,58.413,29.292
			c12.269-0.491,23.586-4.21,33.378-10.741c-9.64,27.257-23.318,44.611-23.504,44.845c-2.294,2.848-2.748,6.76-1.169,10.059
			c1.579,3.298,4.911,5.397,8.568,5.397h68.788c3.657,0,6.989-2.099,8.568-5.397c1.579-3.297,1.125-7.21-1.168-10.059
			c-0.193-0.24-13.897-17.514-23.54-44.868c9.801,6.546,21.134,10.273,33.417,10.765c24.354,0.987,48.391-11.066,58.416-29.292
			c9.142-16.62,10.5-36.04,3.823-54.679C234.537,106.053,219.219,87.789,197.153,72.543z"/>
		<path style="fill:#7D7D7D;" d="M196.168,71.558c-38.57-26.657-58.729-54.269-61.461-58.149c-1.234-2.043-3.226-3.604-5.652-4.264
			c-1.986-0.541-4.026-0.406-5.852,0.286c-1.946,0.731-3.561,2.07-4.646,3.763c-1.766,2.528-22.256,31.168-61.605,58.363
			c-22.066,15.247-37.385,33.511-44.3,52.818c-6.677,18.641-5.319,38.061,3.823,54.68c10.024,18.226,34.039,30.26,58.413,29.293
			c12.269-0.491,23.586-4.21,33.379-10.741c-9.64,27.257-23.319,44.611-23.505,44.845c-2.293,2.848-2.748,6.76-1.168,10.059
			c1.579,3.299,4.912,5.397,8.568,5.397h68.788c3.657,0,6.988-2.099,8.568-5.397c1.579-3.297,1.126-7.21-1.167-10.059
			c-0.193-0.24-13.898-17.515-23.541-44.869c9.802,6.547,21.134,10.273,33.418,10.766c24.354,0.987,48.391-11.066,58.416-29.293
			c9.142-16.619,10.5-36.039,3.823-54.679C233.552,105.067,218.233,86.804,196.168,71.558z"/>
		<path style="fill:#6E6E6E;" d="M195.183,70.572c-38.57-26.656-58.73-54.269-61.461-58.149c-1.233-2.043-3.227-3.604-5.653-4.263
			c-1.985-0.541-4.026-0.407-5.852,0.285c-1.946,0.731-3.56,2.07-4.646,3.763c-1.766,2.528-22.256,31.167-61.605,58.363
			C33.9,85.817,18.581,104.082,11.666,123.39c-6.677,18.642-5.319,38.061,3.823,54.68c10.025,18.226,34.039,30.26,58.414,29.294
			c12.269-0.492,23.585-4.211,33.378-10.742c-9.64,27.257-23.318,44.611-23.504,44.844c-2.293,2.849-2.748,6.761-1.168,10.06
			c1.579,3.298,4.912,5.397,8.569,5.397h68.788c3.657,0,6.989-2.098,8.568-5.397c1.579-3.298,1.125-7.21-1.167-10.058
			c-0.193-0.24-13.897-17.516-23.54-44.869c9.801,6.545,21.134,10.273,33.417,10.766c24.354,0.986,48.391-11.067,58.416-29.294
			c9.142-16.619,10.5-36.038,3.823-54.679C232.567,104.082,217.248,85.817,195.183,70.572z"/>
		<path style="fill:#606060;" d="M194.198,69.587c-38.571-26.657-58.73-54.269-61.462-58.149c-1.233-2.043-3.226-3.604-5.653-4.264
			c-1.985-0.54-4.026-0.406-5.852,0.286c-1.946,0.731-3.56,2.071-4.646,3.763c-1.766,2.528-22.255,31.168-61.605,58.363
			c-22.066,15.246-37.385,33.511-44.301,52.818c-6.677,18.641-5.319,38.061,3.823,54.68c10.025,18.226,34.039,30.26,58.414,29.293
			c12.269-0.491,23.586-4.209,33.378-10.74c-9.64,27.256-23.318,44.61-23.504,44.844c-2.293,2.848-2.747,6.76-1.168,10.059
			c1.579,3.299,4.912,5.398,8.569,5.398h68.788c3.657,0,6.989-2.099,8.569-5.398c1.579-3.298,1.124-7.21-1.168-10.059
			c-0.193-0.24-13.897-17.514-23.54-44.868c9.801,6.545,21.134,10.272,33.418,10.765c24.353,0.987,48.39-11.066,58.415-29.293
			c9.142-16.619,10.5-36.039,3.823-54.679C231.582,103.097,216.263,84.832,194.198,69.587z"/>
	</g>
	<path style="fill:#FFFFFF;" d="M194.198,69.587c-38.571-26.657-58.73-54.269-61.462-58.149c-1.233-2.043-3.226-3.604-5.653-4.264
		c-1.985-0.54-4.026-0.406-5.852,0.286c-1.946,0.731-3.56,2.071-4.646,3.763c-1.766,2.528-22.255,31.168-61.605,58.363
		c-22.066,15.246-37.385,33.511-44.301,52.818c-6.677,18.641-5.319,38.061,3.823,54.68c10.025,18.226,34.039,30.26,58.414,29.293
		c12.269-0.491,23.586-4.209,33.378-10.74c-9.64,27.256-23.318,44.61-23.504,44.844c-2.293,2.848-2.747,6.76-1.168,10.059
		c1.579,3.299,4.912,5.398,8.569,5.398h68.788c3.657,0,6.989-2.099,8.569-5.398c1.579-3.298,1.124-7.21-1.168-10.059
		c-0.193-0.24-13.897-17.514-23.54-44.868c9.801,6.545,21.134,10.272,33.418,10.765c24.353,0.987,48.39-11.066,58.415-29.293
		c9.142-16.619,10.5-36.039,3.823-54.679C231.582,103.097,216.263,84.832,194.198,69.587z"/>
	<g>
		<g>
			<g>
				<path d="M124.586,156.124c-4.444,53.112-34.394,90.314-34.394,90.314h34.394h34.394
					C158.979,246.438,129.035,209.236,124.586,156.124z"/>
				<radialGradient id="SVGID_1_" cx="-196.9007" cy="-2.6849" r="414.7613" gradientUnits="userSpaceOnUse">
					<stop  offset="0" style="stop-color:#FFFFFF"/>
					<stop  offset="1" style="stop-color:#000000"/>
				</radialGradient>
				<path style="fill:url(#SVGID_1_);" d="M124.586,166.818c-3.718,44.402-28.751,75.505-28.751,75.505h28.751h28.752
					C153.337,242.323,128.305,211.221,124.586,166.818z"/>
				<path d="M188.797,77.402c-42.597-29.439-63.65-60.227-64.199-61.028v-0.043l-0.013,0.022l-0.011-0.022v0.043
					c-0.544,0.802-21.598,31.589-64.193,61.028c-43.169,29.825-53,67.023-37.554,95.105c15.44,28.067,77.183,41.753,101.758-14.012
					c24.576,55.765,86.327,42.079,101.765,14.012C241.796,144.426,231.965,107.228,188.797,77.402z"/>
				
					<radialGradient id="SVGID_00000043419588806216201800000017833057092990278827_" cx="-185.5656" cy="-32.5545" r="393.2931" gradientUnits="userSpaceOnUse">
					<stop  offset="0" style="stop-color:#FFFFFF"/>
					<stop  offset="1" style="stop-color:#000000"/>
				</radialGradient>
				<path style="fill:url(#SVGID_00000043419588806216201800000017833057092990278827_);" d="M181.806,80.383
					c-37.957-26.237-56.72-53.672-57.211-54.391v-0.037l-0.009,0.021l-0.011-0.021v0.037c-0.486,0.719-19.251,28.153-57.209,54.391
					c-38.471,26.58-47.232,59.728-33.47,84.758c13.762,25.011,68.789,37.209,90.69-12.488
					c21.899,49.697,76.932,37.499,90.691,12.488C229.039,140.11,220.278,106.963,181.806,80.383z"/>
			</g>
			<g>
				<path style="fill:none;" d="M124.574,25.955c0,0-0.027,0.058-0.058,0.119c0.01-0.016,0.052-0.073,0.058-0.082V25.955z"/>
				
					<radialGradient id="SVGID_00000036215598440496828600000005049412260226799780_" cx="47.0268" cy="-2.6885" r="179.7376" gradientUnits="userSpaceOnUse">
					<stop  offset="0" style="stop-color:#FFFFFF"/>
					<stop  offset="1" style="stop-color:#000000"/>
				</radialGradient>
				<path style="fill:url(#SVGID_00000036215598440496828600000005049412260226799780_);" d="M95.835,61.365
					c21.438-20.835,28.094-34.076,28.682-35.291c-0.904,1.326-19.638,28.379-57.151,54.309
					c-31.496,21.759-43.052,47.916-38.667,70.424C26.321,99.301,73.34,83.221,95.835,61.365z"/>
			</g>
			
				<radialGradient id="SVGID_00000147215974632178139110000000384877826286297248_" cx="101.5561" cy="149.4072" r="100.0741" gradientUnits="userSpaceOnUse">
				<stop  offset="0" style="stop-color:#FFFFFF"/>
				<stop  offset="1" style="stop-color:#000000"/>
			</radialGradient>
			<path style="fill:url(#SVGID_00000147215974632178139110000000384877826286297248_);" d="M124.586,166.818
				c0,0,2.218,39.642-28.751,75.505C95.835,242.323,122.402,207.57,124.586,166.818z"/>
		</g>
	</g>
</g>
</svg>
